<svg xmlns="http://www.w3.org/2000/svg" data-name="Layer 1" viewBox="0 0 392 467"><defs/><path fill="#13233c" d="M291 214l22 8c41 18 67 49 76 92 10 50-8 96-51 128-24 18-51 25-80 24l-127 1a30 30 0 01-16-5c-8-6-10-14-7-23s9-15 20-15h70l69-1c42 0 78-37 81-79 2-42-30-79-71-88a27 27 0 00-6 0H149v56c0 4 2 6 7 6h71c3 0 7-2 10-5 17-14 32-12 44-3 17 11 21 29 13 47-10 19-39 25-55 11a22 22 0 00-16-7h-95c-14 0-22-8-22-22V234c0-14 5-20 20-21l69-1a83 83 0 0083-96c-6-36-34-61-65-69-8-2-16-2-24-2H25C13 45 0 34 0 22S11 0 25 0h169c58 1 108 37 125 95 11 40 3 77-23 111l-5 8zm-131-64l6 3c10 9 22 14 35 11 16-4 27-17 28-32 2-15-6-29-20-36-9-5-30-6-41 6-4 5-9 5-14 5H22c-11 0-20 7-21 18a111 111 0 00-1 14l1 221v82c0 9 1 18 11 22 18 7 32-2 32-22v-49l1-232v-11h115z"/></svg>